# xmcd
#
# Track frame offsets:
#	150
#	11535
#	23146
#	35347
#	51182
#	67434
#	80517
#	96345
#	109546
#	123958
#	135978
#	150060
#	163169
#
# Disc length: 2376 seconds
#
# Revision: 1
# Processed by: cddbd v1.5.2PL0 Copyright (c) Steve Scherf et al.
# Submitted via: audiograbber 1.83.01
#
DISCID=9d09460d
DTITLE=Gord Bamford - Day Job
DYEAR=2010
DGENRE=Country
TTITLE0=Day Job
TTITLE1=Cheap Date
TTITLE2=Put Some Alcohol On It
TTITLE3=Kids
TTITLE4=Rowdy Boy
TTITLE5=She Can Bring It
TTITLE6=Better
TTITLE7=Amber Glow
TTITLE8=My Daughter's Father
TTITLE9=Hank Williams Lonesome
TTITLE10=Day To Day Routine
TTITLE11=Raise The Bar
TTITLE12=In This Town
EXTD=
EXTT0=
EXTT1=
EXTT2=
EXTT3=
EXTT4=
EXTT5=
EXTT6=
EXTT7=
EXTT8=
EXTT9=
EXTT10=
EXTT11=
EXTT12=
PLAYORDER=
